<?xml version="1.0" encoding="UTF-8"?>
<svg xmlns="http://www.w3.org/2000/svg" xmlns:xlink="http://www.w3.org/1999/xlink" viewBox="0 0 462.59 396.93">
  <defs>
    <style>
      .cls-1, .cls-2, .cls-3 {
        fill: #000;
      }

      .cls-1, .cls-4, .cls-5 {
        stroke: #000;
      }

      .cls-1, .cls-4, .cls-5, .cls-3, .cls-6 {
        stroke-miterlimit: 10;
      }

      .cls-2, .cls-7 {
        stroke-width: 0px;
      }

      .cls-4, .cls-6 {
        fill: #fff;
      }

      .cls-5, .cls-7 {
        fill: none;
      }

      .cls-8 {
        clip-path: url(#clippath-1);
      }

      .cls-3, .cls-6 {
        stroke: #fff;
      }

      .cls-9 {
        clip-path: url(#clippath);
      }
    </style>
    <clipPath id="clippath">
      <rect class="cls-7" x="174.13" y="312.99" width="118.47" height="26.25"/>
    </clipPath>
    <clipPath id="clippath-1">
      <rect class="cls-7" x="307.67" y="313.08" width="106.48" height="23.6"/>
    </clipPath>
  </defs>
  <g id="Layer_1" data-name="Layer 1">
    <circle class="cls-1" cx="292.6" cy="226.94" r="169.49"/>
  </g>
  <g id="Layer_2" data-name="Layer 2">
    <path class="cls-4" d="M213.7,272.31h-37.24V9.51c0-4.98,4.04-9.01,9.01-9.01h19.22c4.98,0,9.01,4.04,9.01,9.01v262.8Z"/>
  </g>
  <g id="Layer_4" data-name="Layer 4">
    <path class="cls-4" d="M177.16,209.37h35.81c.96,0,1.74.78,1.74,1.74v57.48h-39.29v-57.48c0-.96.78-1.74,1.74-1.74Z"/>
    <line class="cls-5" x1="175.42" y1="217.11" x2="214.71" y2="217.11"/>
    <line class="cls-5" x1="181.61" y1="217.11" x2="181.61" y2="261.15"/>
    <line class="cls-5" x1="188.58" y1="217.11" x2="188.58" y2="265.31"/>
    <line class="cls-5" x1="195.08" y1="217.11" x2="195.08" y2="265.31"/>
    <line class="cls-5" x1="201.94" y1="217.11" x2="201.94" y2="272.85"/>
    <line class="cls-5" x1="208.13" y1="217.11" x2="208.13" y2="273.05"/>
    <line class="cls-5" x1="310.97" y1="234.91" x2="310.97" y2="270.91"/>
  </g>
  <g id="Layer_3" data-name="Layer 3">
    <path class="cls-6" d="M170.79,308.45v6.24c0,.55.79,1,1.77,1h123.07c.98,0,1.77-.45,1.77-1v-6.24h-126.61Z"/>
    <path class="cls-4" d="M295.63,293.52c-1.66-3.91-4.08-6.32-5.23-7.44-1.11-1.09-7.01-3.6-13.97-8.54l-7.9,10.82c-1.54,2.11-4.61,2.49-6.85.85s-2.82-4.68-1.28-6.79l7.38-10.12c-2.83-1.68-6.61-3.27-9.88-3.77l-9.44,12.94c-2.14,2.93-5.7,3.98-7.94,2.34-2.25-1.64-2.33-5.35-.19-8.28l7.91-10.84c-3.11-1.08-6.48-1.74-9.77-2.43-.06.09,2.42-3.32,2.36-3.23l-13.93,19.08c-1.64,2.25-4.79,2.74-7.04,1.1-2.25-1.64-2.74-4.79-1.1-7.04l8.96-12.28c-2.35.47-3.65-.03-4.4-.58-3-2.19-.54-7.56-3.96-10.92-1.47-1.45-3.76-2.25-4.65-1.55-1.15.91.82,3.73,0,8-.39,2.05-1.28,3.65-1.81,4.39-3.36,4.73-12.73,3.64-16.56,3.16-14.69-1.87-19.86-8.58-23.96-6.2-2.37,1.38-4.41,5.81-1.65,20.24.14,9.91.28,19.82.42,29.73,41.96.06,83.92.12,125.87.19.47-3.04.73-7.84-1.39-12.84Z"/>
    <path class="cls-3" d="M292.15,287.99c-1.02-1.18-2.51-1.86-4.06-1.8-5.96.25-10.14,2.23-10.14,2.23-5.18,2.47-7.26,5.29-10.14,7.35-4.67,3.34-11.62,2.99-25.33,2.15-14.28-.87-21.42-1.3-27.27-4.68-7.16-4.13-5.4-6.76-14-12.26-3.18-2.04-15.23-6.33-25.53-5.31-2.83.28-4.93,2.76-4.89,5.6l.36,24.91,125.87.19c.39-2.1,1.05-7.21-1.39-12.84-1.01-2.33-2.3-4.16-3.48-5.53Z"/>
    <g class="cls-9">
      <g>
        <g id="_Grid_Repeat_" data-name="&amp;lt;Grid Repeat&amp;gt;">
          <rect class="cls-2" x="176.8" y="313.53" width="3.1" height="24.62" rx="1.45" ry="1.45"/>
        </g>
        <g id="_Grid_Repeat_-2" data-name="&amp;lt;Grid Repeat&amp;gt;">
          <rect class="cls-2" x="190.57" y="313.53" width="3.1" height="24.62" rx="1.45" ry="1.45"/>
        </g>
        <g id="_Grid_Repeat_-3" data-name="&amp;lt;Grid Repeat&amp;gt;">
          <rect class="cls-2" x="204.34" y="313.53" width="3.1" height="24.62" rx="1.45" ry="1.45"/>
        </g>
        <g id="_Grid_Repeat_-4" data-name="&amp;lt;Grid Repeat&amp;gt;">
          <rect class="cls-2" x="218.11" y="313.53" width="3.1" height="24.62" rx="1.45" ry="1.45"/>
        </g>
        <g id="_Grid_Repeat_-5" data-name="&amp;lt;Grid Repeat&amp;gt;">
          <rect class="cls-2" x="231.88" y="313.53" width="3.1" height="24.62" rx="1.45" ry="1.45"/>
        </g>
        <g id="_Grid_Repeat_-6" data-name="&amp;lt;Grid Repeat&amp;gt;">
          <rect class="cls-2" x="245.65" y="313.53" width="3.1" height="24.62" rx="1.45" ry="1.45"/>
        </g>
        <g id="_Grid_Repeat_-7" data-name="&amp;lt;Grid Repeat&amp;gt;">
          <rect class="cls-2" x="259.43" y="313.53" width="3.1" height="24.62" rx="1.45" ry="1.45"/>
        </g>
        <g id="_Grid_Repeat_-8" data-name="&amp;lt;Grid Repeat&amp;gt;">
          <rect class="cls-2" x="273.2" y="313.53" width="3.1" height="24.62" rx="1.45" ry="1.45"/>
        </g>
        <g id="_Grid_Repeat_-9" data-name="&amp;lt;Grid Repeat&amp;gt;">
          <rect class="cls-2" x="286.97" y="313.53" width="3.1" height="24.62" rx="1.45" ry="1.45"/>
        </g>
      </g>
    </g>
    <path class="cls-4" d="M343.23,276.51h-33.47V40.3c0-4.47,3.63-8.1,8.1-8.1h17.27c4.47,0,8.1,3.63,8.1,8.1v236.21Z"/>
    <path class="cls-4" d="M310.57,219.94h31.83c.96,0,1.74.78,1.74,1.74v51.49h-35.31v-51.49c0-.96.78-1.74,1.74-1.74Z"/>
    <line class="cls-5" x1="308.82" y1="226.9" x2="344.14" y2="226.9"/>
    <line class="cls-5" x1="314.39" y1="226.94" x2="314.39" y2="268.05"/>
    <line class="cls-5" x1="320.65" y1="226.9" x2="320.65" y2="270.21"/>
    <line class="cls-5" x1="326.5" y1="226.9" x2="326.5" y2="270.21"/>
    <line class="cls-5" x1="332.66" y1="226.9" x2="332.66" y2="277"/>
    <line class="cls-5" x1="338.22" y1="226.9" x2="338.22" y2="277.17"/>
    <line class="cls-5" x1="431.42" y1="232.34" x2="431.42" y2="268.33"/>
    <path class="cls-6" d="M304.67,309v5.61c0,.5.71.9,1.59.9h110.61c.88,0,1.59-.4,1.59-.9v-5.61h-113.8Z"/>
    <path class="cls-4" d="M416.87,295.57c-1.49-3.51-3.67-5.68-4.7-6.68-1-.98-6.3-3.24-12.56-7.68l-7.1,9.73c-1.38,1.89-4.14,2.24-6.16.76s-2.53-4.2-1.15-6.1l6.64-9.09c-2.54-1.51-5.95-2.94-8.88-3.39l-8.49,11.63c-1.92,2.64-5.12,3.58-7.14,2.11-2.02-1.47-2.1-4.81-.17-7.44l7.11-9.74c-2.8-.97-5.82-1.57-8.78-2.19-.05.08,2.18-2.99,2.12-2.91l-12.52,17.15c-1.47,2.02-4.3,2.46-6.32.99-2.02-1.47-2.46-4.3-.99-6.32l8.06-11.04c-2.11.42-3.28-.02-3.96-.52-2.7-1.97-.48-6.8-3.56-9.82-1.33-1.3-3.38-2.02-4.18-1.39-1.03.81.74,3.36,0,7.19-.35,1.84-1.15,3.28-1.62,3.94-3.02,4.25-11.44,3.28-14.89,2.84-13.2-1.68-17.85-7.71-21.54-5.57-2.13,1.24-3.96,5.22-1.49,18.2.13,8.91.25,17.81.38,26.72,37.71.06,75.42.11,113.14.17.43-2.73.65-7.05-1.25-11.54Z"/>
    <path class="cls-3" d="M413.74,290.61c-.92-1.06-2.25-1.67-3.65-1.61-5.36.22-9.12,2-9.12,2-4.65,2.22-6.53,4.76-9.11,6.61-4.2,3-10.45,2.69-22.77,1.94-12.83-.78-19.25-1.17-24.51-4.21-6.43-3.72-4.85-6.08-12.58-11.02-2.86-1.83-13.69-5.69-22.95-4.78-2.54.25-4.43,2.48-4.39,5.03l.32,22.39,113.14.17c.35-1.88.94-6.48-1.25-11.54-.91-2.1-2.07-3.74-3.13-4.97Z"/>
    <g class="cls-8">
      <g>
        <g id="_Grid_Repeat_-10" data-name="&amp;lt;Grid Repeat&amp;gt;">
          <rect class="cls-2" x="310.06" y="313.55" width="2.79" height="22.13" rx="1.39" ry="1.39"/>
        </g>
        <g id="_Grid_Repeat_-11" data-name="&amp;lt;Grid Repeat&amp;gt;">
          <rect class="cls-2" x="322.44" y="313.55" width="2.79" height="22.13" rx="1.39" ry="1.39"/>
        </g>
        <g id="_Grid_Repeat_-12" data-name="&amp;lt;Grid Repeat&amp;gt;">
          <rect class="cls-2" x="334.82" y="313.55" width="2.79" height="22.13" rx="1.39" ry="1.39"/>
        </g>
        <g id="_Grid_Repeat_-13" data-name="&amp;lt;Grid Repeat&amp;gt;">
          <rect class="cls-2" x="347.2" y="313.55" width="2.79" height="22.13" rx="1.39" ry="1.39"/>
        </g>
        <g id="_Grid_Repeat_-14" data-name="&amp;lt;Grid Repeat&amp;gt;">
          <rect class="cls-2" x="359.57" y="313.55" width="2.79" height="22.13" rx="1.39" ry="1.39"/>
        </g>
        <g id="_Grid_Repeat_-15" data-name="&amp;lt;Grid Repeat&amp;gt;">
          <rect class="cls-2" x="371.95" y="313.55" width="2.79" height="22.13" rx="1.39" ry="1.39"/>
        </g>
        <g id="_Grid_Repeat_-16" data-name="&amp;lt;Grid Repeat&amp;gt;">
          <rect class="cls-2" x="384.33" y="313.55" width="2.79" height="22.13" rx="1.39" ry="1.39"/>
        </g>
        <g id="_Grid_Repeat_-17" data-name="&amp;lt;Grid Repeat&amp;gt;">
          <rect class="cls-2" x="396.71" y="313.55" width="2.79" height="22.13" rx="1.39" ry="1.39"/>
        </g>
        <g id="_Grid_Repeat_-18" data-name="&amp;lt;Grid Repeat&amp;gt;">
          <rect class="cls-2" x="409.09" y="313.55" width="2.79" height="22.13" rx="1.39" ry="1.39"/>
        </g>
      </g>
    </g>
  </g>
</svg>